<?xml version="1.0" standalone="no"?>
<!DOCTYPE svg PUBLIC "-//W3C//DTD SVG 20010904//EN"
 "http://www.w3.org/TR/2001/REC-SVG-20010904/DTD/svg10.dtd">
<svg version="1.0" xmlns="http://www.w3.org/2000/svg"
 width="16.000000pt" height="16.000000pt" viewBox="0 0 16.000000 16.000000"
 preserveAspectRatio="xMidYMid meet">
<metadata>
Created by potrace 1.11, written by Peter Selinger 2001-2013
</metadata>
<g transform="translate(0.000000,16.000000) scale(0.018824,-0.018824)"
fill="#000000" stroke="none">
<path d="M0 425 l0 -415 227 0 228 0 177 177 178 178 0 -178 c0 -170 1 -177
20 -177 20 0 20 7 20 415 l0 415 -425 0 -425 0 0 -415z m607 198 l-177 -178
-177 178 -178 177 355 0 355 0 -178 -177z m-397 -18 l165 -165 -168 0 -167 0
0 165 c0 91 1 165 3 165 1 0 76 -74 167 -165z m600 0 l0 -165 -167 0 -168 0
165 165 c91 91 166 165 167 165 2 0 3 -74 3 -165z m-430 -208 c0 -1 -76 -79
-170 -172 l-170 -170 0 173 0 172 170 0 c94 0 170 -1 170 -3z m240 -172 l-175
-175 -180 0 -180 0 175 175 175 175 180 0 180 0 -175 -175z"/>
</g>
</svg>
